/* XPM */
static char *_767_3a99ca1b00c11eabab162b531fd993fb8586c52df291b0b2495db7aafa5952e4[] = {
/* columns rows colors chars-per-pixel */
"64 64 235 2 ",
"   c #030917",
".  c #040618",
"X  c #050C1D",
"o  c #080E1E",
"O  c #07101F",
"+  c #050D23",
"@  c #080E22",
"#  c #030E2B",
"$  c #071021",
"%  c #0C1224",
"&  c #0F1826",
"*  c #04112D",
"=  c #0D162A",
"-  c #0F192B",
";  c #111626",
":  c #121927",
">  c #11172A",
",  c #12192C",
"<  c #020E34",
"1  c #010D3A",
"2  c #031234",
"3  c #0B1532",
"4  c #061A36",
"5  c #0D1B35",
"6  c #04143C",
"7  c #0B163B",
"8  c #051A3C",
"9  c #0D1B3C",
"0  c #111730",
"q  c #121B33",
"w  c #191E32",
"e  c #111D3C",
"r  c #172032",
"t  c #1B2235",
"y  c #13203E",
"u  c #1C263A",
"i  c #1E293D",
"p  c #21263A",
"a  c #222A3C",
"s  c #020F43",
"d  c #021542",
"f  c #0C1645",
"g  c #051A42",
"h  c #0D1B43",
"j  c #03144D",
"k  c #0D164A",
"l  c #041C4B",
"z  c #0D1B4A",
"x  c #101543",
"c  c #111E44",
"v  c #111C4B",
"b  c #031D54",
"n  c #0C1D52",
"m  c #031E5B",
"M  c #091A5A",
"N  c #121F57",
"B  c #0E2145",
"V  c #07234A",
"C  c #0E214D",
"Z  c #122145",
"A  c #12214C",
"S  c #1A264D",
"D  c #1B2849",
"F  c #042255",
"G  c #0E2353",
"H  c #02225A",
"J  c #0C245C",
"K  c #0A2A58",
"L  c #122454",
"P  c #182556",
"I  c #142A55",
"U  c #1B2C55",
"Y  c #12245B",
"T  c #14295B",
"R  c #1A2C5C",
"E  c #17315B",
"W  c #242E42",
"Q  c #202E4E",
"!  c #293346",
"~  c #24324F",
"^  c #283249",
"/  c #202C55",
"(  c #232F59",
")  c #25325B",
"_  c #293658",
"`  c #29355D",
"'  c #061B65",
"]  c #071E74",
"[  c #022363",
"{  c #0D2463",
"}  c #0E2964",
"|  c #05256A",
" . c #0E2A6D",
".. c #132564",
"X. c #142A64",
"o. c #1B2E63",
"O. c #142569",
"+. c #132A6A",
"@. c #0B326C",
"#. c #1D3163",
"$. c #173368",
"%. c #092977",
"&. c #0C2A75",
"*. c #112575",
"=. c #132C73",
"-. c #142D7B",
";. c #053374",
":. c #0C3374",
">. c #06337A",
",. c #0C337C",
"<. c #0F3878",
"1. c #163475",
"2. c #11347B",
"3. c #223463",
"4. c #293A65",
"5. c #21356A",
"6. c #283D74",
"7. c #2C427E",
"8. c #0B2B83",
"9. c #042A89",
"0. c #122D83",
"q. c #152D8A",
"w. c #0D3282",
"e. c #0E3A83",
"r. c #0A3789",
"t. c #123384",
"y. c #123A85",
"u. c #1A3884",
"i. c #12338B",
"p. c #143C8C",
"a. c #092A96",
"s. c #0E3B92",
"d. c #0C3998",
"f. c #143D91",
"g. c #153A99",
"h. c #283E82",
"j. c #0B36A7",
"k. c #133BAC",
"l. c #0A39B6",
"z. c #14428E",
"x. c #18488B",
"c. c #0B4397",
"v. c #134293",
"b. c #164991",
"n. c #194A94",
"m. c #174599",
"M. c #1A4A9B",
"N. c #2B468A",
"B. c #244B99",
"V. c #0B47AB",
"C. c #1B4BA2",
"Z. c #1648A8",
"A. c #124AAD",
"S. c #1553A9",
"D. c #0B47BA",
"F. c #134CB3",
"G. c #1649B7",
"H. c #1C56B5",
"J. c #2C4CAA",
"K. c #2759A7",
"L. c #2B5EAC",
"P. c #214BBA",
"I. c #215BB5",
"U. c #285AB6",
"Y. c #2C61AD",
"T. c #2E61B2",
"R. c #2562BF",
"E. c #3165B1",
"W. c #0D39CE",
"Q. c #073DE2",
"!. c #0B45CC",
"~. c #184CC6",
"^. c #1353C5",
"/. c #1953D6",
"(. c #245BC9",
"). c #245DD2",
"_. c #325ED5",
"`. c #1668C2",
"'. c #1A67D7",
"]. c #2763C6",
"[. c #3268CD",
"{. c #2969D9",
"}. c #346BD6",
"|. c #1956E5",
" X c #1257EA",
".X c #1968E8",
"XX c #1671FA",
"oX c #2D6EEE",
"OX c #2971E2",
"+X c #3578E9",
"@X c #367EF3",
"#X c #387FF2",
"$X c #406BD0",
"%X c #3885DE",
"&X c #3685E7",
"*X c #3A86E3",
"=X c #3B89E3",
"-X c #3C85EC",
";X c #3B8CED",
":X c #3D9DE3",
">X c #3E94EE",
",X c #3B83F2",
"<X c #3B8DF2",
"1X c #3D91F4",
"2X c #3D96F8",
"3X c #3EA3F8",
"4X c #4993D6",
"5X c #4D8CE0",
"6X c #428BED",
"7X c #4397E9",
"8X c #438AF3",
"9X c #4DA8F8",
"0X c #58B5FF",
"qX c #7BBAF6",
"wX c #74CBF3",
"eX c #9CBDCF",
"rX c #83BCEB",
"tX c #A5D0D8",
"yX c #8AD3F9",
"uX c #96E7FF",
"iX c #AAE6FC",
"pX c #ACEAFF",
"aX c #B6E6FC",
"sX c #B4EBFE",
"dX c #BAECFE",
"fX c #A1F6FC",
"gX c #B7F8FF",
"hX c #C3EBFB",
"jX c #C6FEFF",
"kX c #CBFFFF",
"lX c #DEFEFF",
"zX c #E3FEFF",
"xX c #EAFFFF",
"cX c #F4FEFF",
"vX c #F8FEFA",
/* pixels */
", , q , % , , , , , , , , , , > , , , , : , , , , > , , q , , > , , , , = : , , , , 0 , , , , , , , , q : = , , , , , > , , , , ",
": : > : $ > > > > > > , , , , ; > : > , ; > : : > : > : : - : > > : : > > > > , : > > > > : : : : > > > ; ; : , , , > > > ; , : ",
"p > p u i i u i p i i i 0 i p a u u i i u i u q i a p D r i u u i u , i i i a q u u u i u y t u i i , i u y u i p u u u p , p t ",
", > q 0 5 q q q e q q 5 3 3 e q e 5 - 3 e 0 q 3 q q 0 q q 0 3 e e q 3 0 e q 5 - q q e 5 , q q e y q 3 0 q e 5 q q e q q 0 , , , ",
", > q q e e c c e e e y 5 e e e e 9 y e e e e 3 c e e e e e e e e e e c 9 e 9 3 e e c e c Z e c y e e e e e e e c e e q e , , : ",
"> > 0 e c c h 9 h c Z h h c Z Z Z f Z Z Z c A h Z h Z c 8 h c c Z Z 6 Z c c c h h c c Z y 7 B Z h Z f Z Z h Z Z 9 Z h c e q , , ",
"w p D / z R 5.5.#.T R #.#.#.#.L #.3.#.#.L #.o.3.#.R T #.o.o.#.G #.#.#.#.R R #.o.$.3.L #.#.#.#.U R #.#.#.#.L o.#.5.#.R R Q Z W w ",
"q e c L n } } } ..X.+.{ ......} ....O.+.M X.......} $.....+.{ ........O.X.{ ..O...} X.O...O...Y o.....O.} } ......X.Y X.c c c 0 ",
"0 e S X.+.0.q.i.w.t.t.u.w.p.t.0.w.i.w.w.%.w.8.w.t.t.2.i.w.u.q.w.i.r.t.t.8.t.t.w.w.0.2.8.t.,.t.w.w.w.w.i.t.%.w.i.r.i.u.-.J v e 0 ",
"q e G 1.>.z.s.v.p.w.y.p.p.f.p.w.p.f.p.p.w.p.f.p.p.p.w.p.p.p.z.y.p.f.p.p.y.y.y.p.p.z.b.p.p.p.p.y.p.p.e.f.p.,.z.p.f.v.s.e.@.L y 0 ",
"^ B B.$X&X8X8X,X,X,X,X,X{.,X6X,X-X+X@X@X,X,X,X{.,X,X,X,XOX,X#X,X,X,XOX-X-X&X-XOX@X6X@X,X,X+X,X,X&X6X{.,X,X@X,X,X8X,X<X*X}.E 4.~ ",
"e z @.rXcXcXcXcXcXcXcXcXcXxXcXcXcXcXcXcXcXcXcXcXcXcXcXcXcXcXcXcXcXcXcXcXcXcXcXcXcXxXcXcXcXcXcXcXcXcXxXcXcXcXcXcXcXcXcXzXqX:.A y ",
"e v 2.dX5X1X8X<X;X=X=X=X%X&X=X=X%X=X%X5X*X=X%X*X*X*X*X*X%X%X%X*X-X%X=X*X<X&X%X=X*X*X*X*X=X*X=X-X#X*X*X%X*X=X=X=X;X8X2X7XiX=.L 5 ",
"e h K hX+X+X{.[.T.Y.T.E.Y.Y.Y.Y.Y.L.Y.Y.L.T.Y.Y.E.T.E.L.L.T.Y.T.Y.T.L.Y.T.T.T.K.Y.L.L.T.Y.L.T.T.T.L.L.L.T.T.T.T.].OX+X XpX2.A 0 ",
") U K dXm.i.t.X.T C I I I L T G I K U I l E T U I I L R I L I l I I L I I I I E I I l I I L I I I I L R I h I T $.q.q.@XgXU.6.` ",
"Z h F dXs.%.M B 8 4 4 g g 8 4 4 h g g g 4 4 8 g 8 8 7 4 g 9 4 4 4 h 4 8 7 4 4 g g 7 4 4 g g 4 4 4 8 h 4 4 4 4 4 l M [ .XsXd.Y Z ",
"A f H dXD.q.] M k k k v f k v f k x f f v k k f f k v v x v k f v k k v k k k v v v v f f k x v x v f v f f k k '  .m .XaXg.} v ",
"5 3 C dX~.q.O.P c 3 9 9 9 9 9 * 9 9 5 9 3 7 e 9 9 e 2 e e c e 9 e 9 e Z 4 3 9 e 9 9 e 9 9 e c 3 9 c 9 e Z 3 9 e P O.f '.pX:.N e ",
"` f $.gX@X(.J.6.3.) ) ) v ) ( ) ` ) ` ( ` ( ` S ) ) 3.( S ) ) ` ( ) U ) ( ) ` c 4.) ` ` ` ) ) ( ) ` c ) ) ) ) 3.6.g.o.oXgXr.7.) ",
"B 8 K dX/.i.} k e q 5 q - 5 q e 5 5 3 y 5 5 y 3 5 q e q 5 q 5 e e q q e q e e 3 q 3 5 3 y q 3 9 9 q 3 e 5 e , e N ..k {.pXw...h ",
"Z 7 J dX~.0.N c q 0 0 q > q 0 0 q 0 , , , q 0 - q , q q , , 0 , q , , q , , q , q , q q ; 0 q q q 0 0 , , q , 0 c N k (.iXy...v ",
"5 8 V dXg...h 3 ; % % > % ; % ; ; @ % @ : $ % @ % % ; % X % & % % ; o % % % ; ; % % % ; ; X @ ; % & > % @ ; ; % 7 8 * H.aXy.z 5 ",
"` #.$.dX[.U.h._ ^ q W W ^ ^ ^ p ^ ^ ^ ^ > ^ ^ W ^ p ^ ^ ^ ^ ^ = ^ W ! ! ^ p ^ ^ W ^ , W W ^ ^ W ^ W ^ W ^ q ^ ^ _ 6.B +XgXU.N.4.",
"Z h n aXP.=.v e > , ; 0 > > , , , , , , ; , , , , ; ; , > , , > > , , : > > ; , , : > , , , , , : , , , > ; > > e c g H.aXf.J Z ",
"Z h F dXZ.-.G 9 , > > > , : : , > > , , % , , > , > > > : : , ; > : , , , > > > > > > > > > : : > > , : , @ , , e v 8 H.sXs.Y Z ",
"9 3 V aXg.{ f 3 % @ % % % % % % ; @ ; ; % % @ % ; @ o ; % % ; ; @ ; % & @ @ @ ; % & ; % ; % % O @ % % % @ % ; @ 0 e 2 C.aX&.n 9 ",
"E h  .dX'.C.5.Q t u t u 3 t u u p t t t u t u u u u t u r u u t p u i u u u p , u t u u t a i t p p = u p u u i ~ o.L {.hXc.h.R ",
"c 6 V wXH.=.L 9 - , : : % , , , , > = , , : - = , , : : = , : - , : , , - , > : - , , - : , , , = : & > > , > , 7 Z 4 I.yX,.Y Z ",
"c 7 F dXG.,.L e , , , > & : - , , , , , , , - & > , - , % , , , - , , : , , = & , : , , : ; 0 , : , , , , , , , y v g I.iXt...v ",
"2 6 V aXg.J 3 # % @ $ % % % $ $ % + $ $ $ % % @ @ + & % % $ $ $ $ $ O % @ @ % $ $ $ $ % @ X @ % + $ : $ ; @ @ @ # 2 * S.aX2.l - ",
") T X.dX_.J.6._ W t i a a a a a i a a a : a i a p p a a i a a = p a i a a a p i i a , a a W a a p a a a a w a a _ 4.A [.aXI.h.5.",
"c h K dXZ.=.G 9 3 : q , , - - , , , , , = , : , , , , , , - - : , - , , , & - , , , : = - , , , , , - , , % , , e z 8 H.sXp.Y c ",
"x f F dXG.=.C q 0 - : : , : : : : - : , > : > , - , : - : - : : : - : , - - & - : , : : , , & , : , , - , & - , e v d I.aXv.J Z ",
"6 # l dXc.m 6 * $ $ o o + $ $ X % O O % : $ o o $ X X $ $ $ $ : O $ $ $ $ X o + @ $ , $ @ + $ o O % @ $ % $ O O * 8 * C.aX[ V * ",
"U h K dX(.g.o.D t r t t t r t t w t u r t q w t t t t t t t r r r q i t r t t : t w w p t t w t t t : t r t r t D L h ].aXZ.1.T ",
"c 7 F dXH.X.B e 0 - > q % : , , > > , , , , , > : : , , > = , = : , : : - , , > > > > , > , : , > > > = , , , , e v g I.aX>.Y e ",
"c f F dXP.=.A y 0 - : , > , > > : > , , , , > ; > > > > & - - > > > > > , : > > , , > , > > , : : , - : > > , , q z 4 H.sXw.J h ",
"* 9 g aXs.n 2 $ $ + + @ ; o o X @ @ X X X X @ @ + X X @ % O o X @ X X X o + @ : X X X @ @ @ @ o @ $ , o X X + $ # 2 * C.iXy.s * ",
"U A @.dX_.g.+.S u t t t p t u a w w p w > t t p t p p w t t u , w p t p w p t p w p , w t t t p t t t t w p t t D R C R.sXP.1.R ",
"B 7 K dXS.=.A 5 0 > , , , , , , 0 , , , = , , , > , , , : , , , > > , 0 > > , , , , > , : > - : , , : 0 q ; 0 q 9 Z 4 I.aXg.Y e ",
"Z f b dXG.:.C e 0 > > : , , , , : : : , & , , , - - & , - , , - ; , : : - : - - : - & , , , : , , , - : - = , , c v 8 I.dXs.{ h ",
"# + g pXp.j < @ @ %   X   X X   o $ O o ,   O O o         O $ , o X o X X   o     X % o O o O O O   X o X $ o X + < 2 M.iX' s # ",
"L z K dX).i.Y c w q q w p , r q q t q q r q r u q t q 0 r , r , r q t 0 , t q 0 r q r r r q q t , r q t q , q w A J h ].sXC.+.C ",
"f 7 K dX~.t.Y c q , q q % 0 0 q , 0 q 0 0 q , - 0 q q q - q - , : : - q q 0 0 , q 0 0 , 0 q 0 q q q , q q 0 q 0 e N g ^.pX9...Z ",
"c 7 H dX~.8.} Z c e q e 3 q q e e 5 q q e q 5 q q e q q 3 q , , , , q q e q q q q r 5 e q q 7 q q e 3 q q q e e N N l {.gX9.} c ",
"# h g yXk.' j 1 # + # * 7 # # + # 3 # # $ * # 3 # # # # q + + o @ + @ # # # # e # # # # # # + # * # y # # # # # 1 s 1 S.uXu.s # ",
"A z H dXoXl.d.&.Y R T G G L T #.L T T G C T G Y G L R L C v Z e Z Z Z L I L n Y Y G L L T Y T 3.T T L T Y o.P Y | 8.M .XfXd.O.G ",
"Z h N aX Xk.a.*...L Y o.Y Y Y o.Y J ..Y G Y Y Y Y Y J L L A Z 8 Z Z S N P Y Y Y Y X.l Y Y Y Y R Y Y Y J Y n Y ..-.0.j .XaXp.X.c ",
"c f H dX|.W.j.9.2.{ +.=.&.=.=.1.=.1.=.=.O.=.=.=.+.=.+.&. .Y L k z n ..{ +.1.=.=.=.=.{  .=.=.=.=.&.=.=.*.=.+.=.-.i.g.H .XpXf.} c ",
"+ + 6 dXD.9.%.' m <.H b H H [ H H [ b [ u.H H H H [ b H l f d S 2 6 g b | F H b H H t.m H H H | H b F b b @.b H ' ] F H.iXm 1 + ",
"v c K dXXX X X^.G.F.G.V.I.F.F.F.A.H.V.V.F.A.F.H.A.F.D.F.S.s.w.%.>.t.C.A.D.G.V.A.V.A.F.A.F.A.A.F.V.A.Z.V.A.F.F.H./.!.r..XiXm.{ B ",
"r 3 g dX:X2X>X>X6X9X6X1X*X<X<X7X1X;X9X>X<X<X1X;X;X2X1X3X6X{.c.i.q.k.{.6X9X>X<X;X1X8X>X1X6X9X;X<X<X;X=X;X<X<X0X6X>X2X&X:XpX&.A e ",
"e 7 h rXcXcXcXcXcXeXcXxXcXcXcXcXcXcXeXxXcXcXcXcXcXcXcXtXcXxX^.j.k.|.vXcXzXcXcXcXcXcXcXcXcXlXcXcXcXcXcXcXcXcXhXvXcXcXcXcXrX%.C 9 ",
"# 3 * <.n.M.Z.M.n.b.b.M.K.x.x.n.m.K.b.b.n.n.n.C.M.b.A.A.oX4X'.8.] `.5XS.H.S.M.U.m.b.b.b.n.C.x.x.n.M.K.b.n.b.C.M.M.M.x.K.w.E 2 * ",
"q 3 * +.2.>.>.>.>.2.>.;.>.>.;.>.;.;.,.,.,.;.,.;.;.w.r.d.(.XX9X!.j.0X'.d.s.r.>.>.;.>.e.>.>.>.>.<.,.;.:.>.>.e.>.>.>.r.:.>.%.} Z e ",
"w q . = 7 d g g 8 g 8 8 g 8 8 h g 6 4 8 g 8 8 g 6 B l b  .|.wXW.9.qXF.[ j l g 8 8 8 6 8 8 g 8 6 g 8 g 8 6 8 6 4 g 4 g H } A Z q ",
", = = 0 q 2 7 c 9 7 7 9 8 7 7 e 7 9 7 7 9 7 7 9 7 f k M m !.uXW.| iXG.*.j k k f 9 7 7 f f k 7 7 7 9 7 f 7 7 7 9 4 7 3 f L c e q ",
"X X + # 6 # 1 < 6 c 6 2 < < 6 7 < 2 2 < f < < 2 < d 6 d 2 l.fX!.b fXk.' M 1 # < < 6 h * # # < h 6 < # * < h < 1 1 < h < 2 * + o ",
"- q q B c h v z v A A k P v v L A L v v L A z S c n {  .b /.gXQ.9.gX.Xj.q.{ Y v v v z N n n A A A C A L A z v A A h L Z e y q , ",
"- = 0 e e c e x c c 9 e 9 9 e c 9 9 c x e e c y e c L ..j oXjXQ.a.jX|.g.*.N c 9 e c c x e e e c c e 9 c e c e c e e e e q 3 - , ",
": = : , 0 0 q 0 q 7 q q , q q e q 0 q 0 q q q q q e v G d {.jXW.a.kX/.0.} c e q w 0 q q q e q q 0 q 0 0 7 0 q q q 0 , q , = , : ",
"$ - % % = @ = = @ = @ @ - + @ @ + > = + % # % % + % * f f (.jX9.| jXc.n d % @ w % % = @ = @ @ = @ + 3 @ % % = @ @ + % @ % - $ $ ",
", , q ; w > , > w w > > 0 > , ; > > > 0 0 , , , , 0 e h f R.jXk.9.jXH.*.L 7 q 0 > , w 0 > > > , , , , , ; w , , , , w , , > , , ",
"> , , , > 0 > , , ; > , , , > , > , > , , , , , : , q A 8 E.jX9.%.kXG.O.c 7 w , 0 > @ 0 > > > , > , , , , ; > > 0 , > , > q , , "
};
