/* XPM */
static char *_891_73cbe8ddc9f55d4cf5337bf467fead031db467ac5e19f3b623cdbe969e7da5b1[] = {
/* columns rows colors chars-per-pixel */
"64 64 64 1 ",
"  c #02050C",
". c #04080D",
"X c #010612",
"o c #050A15",
"O c #090B16",
"+ c #02071A",
"@ c #050B1B",
"# c #0B0E1C",
"$ c #0D101E",
"% c #040D23",
"& c #0A0E21",
"* c #070F2A",
"= c #080F29",
"- c #100F21",
"; c #061025",
": c #0C1223",
"> c #061029",
", c #0D152B",
"< c #0F192B",
"1 c #111326",
"2 c #11162B",
"3 c #11192E",
"4 c #0D1631",
"5 c #0F1935",
"6 c #101631",
"7 c #131A32",
"8 c #181E37",
"9 c #151D3B",
"0 c #181F3E",
"q c #17203D",
"w c #18203D",
"e c #141D40",
"r c #162242",
"t c #192444",
"y c #1B254A",
"u c #17284A",
"i c #1C294D",
"p c #1F2B53",
"a c #1E2F5A",
"s c #1F305B",
"d c #202A4D",
"f c #212D53",
"g c #222F5B",
"h c #23315C",
"j c #243462",
"k c #263964",
"l c #27376A",
"z c #28376B",
"x c #27396C",
"c c #28396D",
"v c #253970",
"b c #2B3C74",
"n c #2D3E7A",
"m c #2D417D",
"M c #314485",
"N c #31458A",
"B c #334A8C",
"V c #354B93",
"C c #364F9A",
"Z c #384F9B",
"A c #365196",
"S c #36509B",
"D c #39519D",
"F c #3A53A2",
/* pixels */
"         XXXXX XXXXXXX%            + XXXXXXX.XXo            +XXX",
"         +XXXXXXXoXXXX%            %XXXXXoXXXXX@            %XXX",
"     . . @+ooooooooXXo>     .. .   %oXooooooooo@       .    %+XX",
"     .   &o@o@o@oo@@@o,X           ,@@@+o@o@@o@@X    o      ,XXX",
"         :oo@oo@@ooOoo3.   . ... . <o@O@@OOo#@O$o ...       ,+ X",
"X @*&&&&&&::$::$6,,:=,:,11:,7O#OOOO@OOOO@7$$##$$#-&##-4:,:,&%@@X",
"XXX,@O##########,:::::::::,:9Xo.o..Oo.o.o5####$$######7:::&&&@@X",
" X+,@#&:$:$;$$;$3:,2,21,,:2:9oooOOO.OOOOoq;$$;$$#&:&#&8,,:&&%@+X",
"XXX*@##:::::::$:623222,,3,<<wOOOoOOOOO@OOq::::::::::::9<,:&#%@@X",
"XX@4@@#&::::1$::63366666665<tOOOOOOOOOO#Ot1$::::$:$:::q,,:::@@+o",
"+%&,,599rryyyyyyyyyyyyyttytttytutttittttttttttyuiyyyyyy0q7544%%+",
"++@%%::,,rOOOOOOOOOOOOu,2,212,1,212i222,<<222,,9#OOOOOOOoo..,+XX",
"X+@@%::,,qOO#O$#O##O##p,222,22223,,a2,<,22,2<2,7OO$OOOOO.o.o,+XX",
"++@:&::,<q#O#$$$$$$$#$g333777767377s727737<<375q$$O$#OOOOoo 4XXX",
"o+@@%::,<q@###$#$$$$$$j7q5777733777s777575qq777r$$$$OOOOO.+ ,oXX",
"+@%,,,790tttifffaassshksssjhhjhgjshljhjshjssjsjkhfiiye09874=,;++",
"XX+,+@$;:::1<2<qt##-&-&&----zddddttdtyyyyc--&-&####OOOq$;#@@oXXX",
"XoX4@@$$:1<<<378q:1111111111bddddddddddddb11111::$#$OOq$$##@ooXX",
"XXo*@##;::1:2377911111111111nfffddffffgffn11111:$$$$#Oq:;$@#ooXX",
"XXo,@@#$::1<2378911222222222MgggghgggggghN22211:$$$#O@9:$$@O@oX.",
"XXo,@@$::::,,73q011122222222NkjjjjjjjjjjjV22,11$-$##OO9:&##@o@XX",
"%%=4<55qrtipahkkzbMMVDZFFFFFFFFDFFFCFZZZZDZVNmmxzhgfiitt9954>>%%",
"   ...@oO81,225700tydfZ772827777777Dppppfpfytt0yttw0777,,:&&,oXX",
"    .o.oO7:2267890tyydZ777277727277Apdpppfddttqytww8773<,::%>oXX",
"    .oo.O71227799qttddZ677727777777Cfdfppppyyt0ytwq0775,:::%,XXX",
"    .oooO7:,32779qttddC667777777272Zffpppfdiye0dtww8q32<,,:&,+XX",
"+%&,459qttipagjkxbmNVZZDDZDFDDZDDDDZZZZZZZZVMnbzkhhfuutq995,,%%%",
"XX+*@@$$::1:2377912227723777VzzzzzzzzzzzzZfydee088722:8Oo.X.    ",
"XX+,+##;$:122378912227773877ZzzzllllzzzzlApittq9877<<:9OOoo.    ",
"XXX4@@#$:::,3377911223778277VzzzllllzzlllCpyttq9777,2:7@O.o.    ",
"XXo*@#$;:::<2378911227222777ZzzzllllllllzAdytt099772117O.oX.    ",
"XXo,@O##::<22779y1:377877727VzzzzzllllllzCfiytq98773227OOoXX    ",
"  X..oOOO2324770qwyuipCxccxxvcxcxvvCapappfaiyttlytq0777<,,:&,+oX",
"    ..o.@#:<,77790ttupClllzlzlllzzlZpfifppiittwctrq957<<,::&4XXX",
"   ..oooO#:227789wttufClllllzlllxllCppfppdfittwvtwq0976<,::%4oXX",
"    .oooo#1,,7790wtyyfCklllllllllllCppfppffyttwxtt08777,::::,oXX",
"    .Xooo#:2,6779qqtddVzlcllxxlxxxlFpppppppyttwxttww77<<,::%4XXX",
"+%==4799qtyppgjkxmmMBCZZZZZZCCCCCCCCZCCFZZCNMmbckhffiitq9944**%%",
"XX+,@#$$:::22779b:1228763777SppppfppfpppfA332:1$#1###O:$&#O#o+XX",
"XXX,@@#::::<2777c1<227777677CppfppppppppdC732211:###OO,::&#@oXXX",
"XXo,+@$;::122278m$1<27377777ZgpppfppfdpfpC62211:$$##OO2#@:@OOoXX",
"XX+,@##::1,22778c:1333777772DfpfppppffpppC623:::1$$#OO,-&#@@@oX ",
"+%,,4599eyyfpgjjlbmMVZZZASADVVZVCZZZVCDADVZVNmnlkhgfiyd09566,*%%",
"+++@%:::26OO&##&11:212BhhkkhkjjkjjjNdyyyyyyytr0c-##-OOOOoOO ,oX ",
"o+@@&::,27O#$$$$111222MfhhfhhhhhgghMyyuyyytyttqb-$##O#OOo...4+XX",
"X@@#&:::27OO$$$$:11111mffffffffffffmttwttwttttqx$$$$OOOOOoo.*XXX",
"++@%%::<26O##$$$1:1111bdidddidididib09qqwwwqwqqb$$##O$OOo.X.,oXX",
"o+@@#::,27OOO#$$$$$1$$zddyiyyiiyydyz88798987877c$-#OOO.OOOXX,XXX",
"%%*,4799ryuifgjkjjkzzjkjjzjzjkxlxlzzlxclzkkzlklkjhhfpttr975,,:%+",
" X+,@##::&122777htre0ttwett0h$#$#$#$#$###h67677777733:7<,:::%+++",
"XXX4@##:::,22767g000999q9900h$###$-##&#$$f7767767772<:7<,::@@@+o",
"XXX,@@##::1,2222p99800800088f######$#####p2222222222,:7,,:::%@+o",
"XX+,+##::::2,2,2i77977877777p##O#O#O##O#Oi<,2,2,1222:<7<,::&@++o",
"+%*,4599ryuuuyuyyyuuuyutyyuyytyyyyyyyutyytyyuuyyyyytyttqq55,,,%+",
"     .o.O#:::::,:,::,:t632332723232t::::,::::::yOOOOOOOOooo ,ooX",
"    XoooOO:::::&::::::r4,<,3,,,3<3:q:::::::::::rOOoOOOO@o.X 4oXX",
"    ..ooo@#&:$;$:#:#;$9,<::<<:<,,,,9##;$;$#$;$;9.O.oO..oo...2+XX",
"   .oo.ooo#&@:$@:#@:##9::,:::::,:::9;$##$&#;##$9OooooOoooo..=OXX",
" XXXooooo::##:&&#&&&;#5::::;:::::::5#;;$:&&$;:&5oooOOo@ooOo.,X+ ",
"XXX,ooo@o@o@+oo@4.   .  ....4@o+@o+@oo@o+,@+ooo+oOooo#@.....    ",
"XXX,o@oo@@@+o@oo,  X     .  ,+@oo@o@@o@o@,o+@@@+O@o@@oo         ",
"XX+%ooooXoXooooo*           &Xooooooooooo%oooXoooooXXXX         ",
"XXX%XXXXXXXXXXoo%           %XXXoXXXXXoXo%XX.XoXXXXXXX          ",
"X X%XXXXX. XXXXX+           % XXXX XXXXXX+XX.X XXXXXX           "
};
