/* XPM */
static char *_1039_700e8d71cd36eb4d17c9e185cfa5ed30cbaa8bea23d4300dd76701e82876a9bf[] = {
/* columns rows colors chars-per-pixel */
"64 64 232 2 ",
"   c #030102",
".  c #0B0004",
"X  c #06000A",
"o  c #0B000B",
"O  c #130004",
"+  c #1B0103",
"@  c #13000C",
"#  c #1B000C",
"$  c #060010",
"%  c #0C0112",
"&  c #140113",
"*  c #1B0013",
"=  c #14001A",
"-  c #1D001B",
";  c #240003",
":  c #2A0102",
">  c #24000B",
",  c #2C000D",
"<  c #320105",
"1  c #3C0102",
"2  c #3B010C",
"3  c #220014",
"4  c #2B0115",
"5  c #23011C",
"6  c #2B011C",
"7  c #330114",
"8  c #3B0015",
"9  c #33011C",
"0  c #3B021D",
"q  c #1D0123",
"w  c #240224",
"e  c #2B0123",
"r  c #24012A",
"t  c #2B012D",
"y  c #2D0929",
"u  c #340223",
"i  c #3C0124",
"p  c #350924",
"a  c #33012C",
"s  c #3B012C",
"d  c #37092B",
"f  c #260033",
"g  c #2C0133",
"h  c #2D003B",
"j  c #340133",
"k  c #3C0133",
"l  c #35013B",
"z  c #3B013B",
"x  c #39093E",
"c  c #420103",
"v  c #4A0009",
"b  c #540002",
"n  c #590007",
"m  c #430116",
"M  c #4B0115",
"N  c #43021C",
"B  c #4A011E",
"V  c #570213",
"C  c #53011C",
"Z  c #5A021D",
"A  c #620102",
"S  c #680009",
"D  c #790107",
"F  c #62021B",
"G  c #670419",
"H  c #6C011B",
"J  c #72001B",
"K  c #7A0218",
"L  c #430124",
"P  c #4B0125",
"I  c #440926",
"U  c #43012C",
"Y  c #4C012D",
"T  c #530124",
"R  c #5C0224",
"E  c #580823",
"W  c #54012C",
"Q  c #5B012C",
"!  c #430034",
"~  c #4C0034",
"^  c #43003C",
"/  c #4C003B",
"(  c #430938",
")  c #530033",
"_  c #5B0133",
"`  c #5A0A36",
"'  c #53003B",
"]  c #5B023B",
"[  c #640124",
"{  c #6D0223",
"}  c #690A26",
"|  c #64012C",
" . c #6B012B",
".. c #720125",
"X. c #7D0227",
"o. c #74012B",
"O. c #7B012C",
"+. c #640133",
"@. c #6B0133",
"#. c #64003B",
"$. c #6A013D",
"%. c #640B3A",
"&. c #730132",
"*. c #7C0233",
"=. c #79023B",
"-. c #2F0040",
";. c #340042",
":. c #3B0144",
">. c #3C0149",
",. c #450142",
"<. c #4B0044",
"1. c #44024B",
"2. c #4C014A",
"3. c #42084F",
"4. c #530044",
"5. c #590042",
"6. c #53004C",
"7. c #59004D",
"8. c #450254",
"9. c #4A0253",
"0. c #4D025A",
"q. c #550053",
"w. c #5A0055",
"e. c #55015B",
"r. c #5A005C",
"t. c #660243",
"y. c #6A0548",
"u. c #740445",
"i. c #780548",
"p. c #641040",
"a. c #670154",
"s. c #760352",
"d. c #4E0560",
"f. c #550164",
"g. c #5D0063",
"h. c #610064",
"j. c #64006C",
"k. c #74006D",
"l. c #7A006B",
"z. c #720071",
"x. c #850006",
"c. c #970007",
"v. c #890118",
"b. c #990219",
"n. c #A70006",
"m. c #B9130C",
"M. c #A80116",
"N. c #83002D",
"B. c #880228",
"V. c #94002B",
"C. c #990129",
"Z. c #961120",
"A. c #830132",
"S. c #8B0133",
"D. c #84013B",
"F. c #9C0134",
"G. c #940038",
"H. c #A70225",
"J. c #AA022A",
"K. c #B8022A",
"L. c #AD0233",
"P. c #A90336",
"I. c #B30134",
"U. c #BB0236",
"Y. c #CF090B",
"T. c #C9021B",
"R. c #D9051B",
"E. c #F8060B",
"W. c #E91205",
"Q. c #E90819",
"!. c #FD0314",
"~. c #F20C14",
"^. c #FE0A15",
"/. c #F7051A",
"(. c #FE031C",
"). c #F31A18",
"_. c #EE2707",
"`. c #E83904",
"'. c #F0251A",
"]. c #EB3718",
"[. c #C60226",
"{. c #D80027",
"}. c #CA1C2B",
"|. c #D21F2B",
" X c #C50536",
".X c #D80435",
"XX c #E80628",
"oX c #FE0325",
"OX c #F40A27",
"+X c #FF0823",
"@X c #FE012B",
"#X c #E60438",
"$X c #FE0233",
"%X c #F50A34",
"&X c #FE0A33",
"*X c #F40739",
"=X c #FD043C",
"-X c #FF093C",
";X c #EF1431",
":X c #F2262C",
">X c #EC352A",
",X c #F22638",
"<X c #EB3B33",
"1X c #E7640E",
"2X c #FD6A0C",
"3X c #FD750C",
"4X c #EF6718",
"5X c #F56732",
"6X c #82074C",
"7X c #860655",
"8X c #960554",
"9X c #AD0144",
"0X c #A60456",
"qX c #B90756",
"wX c #FE0242",
"eX c #FF0748",
"rX c #EB2A4B",
"tX c #F2244B",
"yX c #DE0564",
"uX c #FD6948",
"iX c #FC8A10",
"pX c #FBAA0F",
"aX c #FCBE17",
"sX c #FC953E",
"dX c #FCBA30",
"fX c #FBC01C",
"gX c #FCC03A",
"hX c #FB8447",
"jX c #FCA64E",
"kX c #FCE46E",
"lX c #FEE98A",
"zX c #FEFEFE",
/* pixels */
"O . . O .   O . . . O . . . . .   X X X X   o X X X   o X X   X X X . X X X X o X X   o X o X o o X . X . & X X . O   . . . . O ",
"B L P W {   T P N L + L i U s 6 5 i s s a   j j j j   j l h h q w x l l l X h j g j   j j a a 5 e s a s s * i L L Y   [ O.R T V ",
"P L Q C.K.1 H T T P ; P I L L 9 5 s s s s . j a j j . j j g j w w z l l :.% g j j t   j a j a w w s i s U * i L P |   I.I.C.R F ",
"7 9 v.OX&XE.K...[ | + _ Q Q _ ( ( ' ' <.2.  j t a t   0.0.e.d.9.q f g t t % 8.0.0.8.o t g a a u k ^ / / / * ) W Q o.c =X+X&XH.V ",
". . x.E.kXW.S O . . O . .   . O . X . . . . . . . X X . X   X o @ X   X   % X   . . X . . o . X o .   .   O .   O + b ~.lX&XA + ",
"T { n.-XzXdX@Xb.V X... .|   W T Y U . U ! k k w 5 j z k l   z j j z   l l l l w e k k k z & k s U k   U Y P Q p R S.&X].zXOXoXV.",
"T o.Y.-XzXjX&X[.G C.N... .  Q W W Y . Y ! ! ! y w z k k z . z z z z   z z z z y e k k k ! & ( ! ! !   ~ Y W Q N  .C.$X>XzXOX@XK.",
"8 Z E.@XzXdX+XOX[.J.C.N.O.. +.+.] ] O 4.4.4.6.^ y t g j t % 0.0.0.f.X d.0.9.0.3.r g a a j = ,.<.' / @ ) ) ) Q Q O.K.$X>XzXOXoXQ.",
": O c.^.zXaXE.: < < 1 : ; ; + + . . @ O @   . @ @ .   @ @ o @ o X X X o @   o o o o   o @ o . . o . . O # 4 + + : : c.`.zXW.!.c ",
"K V.$XeXzXaX$X$X+X{.c .XI.F.S.[ p W ) ~ ~   ~ ^ ^ ^ . ^ ^ ^ ^ t t ^ ^ ,.:.% ^ ,.^ ^   ^ ^ ! ~ d d ~ ~ Y W 6 S.L.#XwXn.<XzX;X$X(.",
"K V.@XeXzXaX$X@XoX{.c .XI.F.S.R p W ) ) /   ~ / / ^   ^ ,.,.^ t t ^ ,.,.z o ,.,.^ ,.  / / ^ ! a s ) ) _ _ 6 S.P.#XwXn.<XzX;X$X+X",
"V F oXwXzXaX=X@XXXJ.c V.A.o.@.Q U Y ! s s . ,.<.,.2.o 2.8.0.0.1.q g f t g o 9.2.2.2.% 1.1./ ,.( ! / ) ~ _ 6 | O.C..Xc.<XzXXXoXQ.",
". + E.^.zXaXY.1 + ; ; + +   @ + # O . @ # @ @ O @ & & @ *   @ & * &   & & & * o X @ @ @ @ @ @ & @ O   O O O # O : : n.`.zX;Xn.: ",
"T O.E.eXzXjX$X[.G V.N.O.o.  +.+._ _ + ] ' ' ' s a / <.,.<.  ,.1.,.1.  2.,.1.1.y w k k ! ~ @ / ' ' )   _ _ Q | I &. X=XrXzX%X@XK.",
"P  .W.wXzXjX@XC.E B.o.o. .  +.+._ _ O ] ' / 4.d a / <.<.1.. <.2.<.2.  <.2.2.<.j w s k k ! * / / ' '   _ Q _ | I &.I.wX,XzX*X$XV.",
"7 m m.$XzXsXXX..T R R Q W . W W ~ ~ @ / / ,.^ k x ,.1.1.1.% 1.1.8.8.. 8.1.8.1.l :.>.:.,.x & t.t.t.t.o 8X8X0XqXqX| B.=X>XzX%X{.R ",
"> O S (.zXiXc.+ + # : > # # * > o # @ * -   * * * *   3 * & & * & * * * * X - & & #   * & # & * + * & @ > e @ # # # b _.zX~.S : ",
"T W I.wXzXiX{.o. .Q ; Q _ _ _ P p _ ' ] 5.  4.<.2.6.. <.6.2.9.k - j j l j o k j k k   2.<.4.<.d s ' ~ ] ) 6 _ _  .D.c ,XzX*XI...",
"B U C.-XzX3XK. .Q Q > Q _ _ _ P y ] ] ' 6.  4.4.<.<.. 2.6.6.q.z w j l j k % l j j k   6.4.<.4.d ! ' ' ' ) w ) _ @.=.< ,XzX%XF.Z ",
", 4 G @XzX3Xb.L L i ; U L U U s y ! k ^ ^ . ^ :.,.:.X :.:.>.>.l h >.>.>.;.$ ;.:.:.l X a.a.a.y.7.y.s.s.6X7Xe 8X0XqXyX8 :XzXOX} 8 ",
". . S E.zX3XV + . # + + + . + # > # . 3 * 3 3 # & 5 * - * . 5 5 - - . - * - - * & * * & * & * * - #   # # 3 @ O * # b W.zX%X2 o ",
"u s A &XzX5XV.P 6 Y ~ ) )   _ ) ) ~ O 4.4.4.4.k y 6.6.q.6.  q.q.q.e.  q.q.q.q.x r j j k k = 4.4.<.'   / ' ~ ) p Y +.G.:XzX*X&.U ",
"e s b *XzX5XN.N 6 Y Y ~ )   ) ) ~ ~ O 4.4.4.6.k a 6.6.q.q.X e.q.q.e.  q.e.q.q.x w j j k j = <.4.4.'   ' / ' ~ p ! _ S.:XzX*X+.s ",
"& * v [.zX5XG 4 - u e u s   s s s s . k k z z t g :.;.;.:.X :.;.:.;.X :.;.:.:.h f h l l l = k k j k X a u a u e u i C |.zX.XN 5 ",
"@ X , M.zX1Xv @ @ # + * # * 3 # @ 3 5 3 6   5 6 6 6 . 5 5 5 3 # 5 5 e 5 e X 5 5 5 w   5 5 5 5 # 3 * 3 * 3 * * @ @ @ # m.zXc., @ ",
"9 e W  XzX1X{ U U U + ~ ~ / / U y ' 4.4.4.  7.6.6.6.. a j g j w l r.e.r.e.o r.e.q.q.  6.6.6.4.k k <.' / / w ~ ~ ~ ) + |.zX XW i ",
"u e Y U.zX1X .U U U + ! / ~ / U u 4.4.4.4.  7.7.w.q.  a j j g 5 l g.g.f.f.% r.e.e.q.  6.6.6.6.x k 4.<.' / w ~ ! ! ) + }.zXU.Y 0 ",
"* * 7 b.zX1XC 5 5 w + 6 e u u 6 w a j j g . z j k l . j g g h r f ;.;.;.l o ;.;.l l X l l g j t t t s a e q e e e e ; m.zXb.7 * ",
". X 2 b.zX4Xv @ @ 3 * 3 3 . 5 4 4 4 . 7 e 9 9 5 > 5 e 6 6   u t t a . t t e t 6 3 e e 9 6 & w.a.a.a.o a.a.s.s.y.a.7X0XrXzXH.> @ ",
"e e c P.zX5X[ 7 5 U U ! !   / / / <.. 4.6.6.6.( w j j g j   f.g.g.g.  g.f.g.r.:.x e.q.q.6.& 6.6.6.4.  ' / / ^ u k ^ $.}.zXP.P a ",
"w t c I.zX5XQ 6 5 ! s ! /   / / / <.. 4.6.6.6.k w j j j j   g.g.h.j.  f.g.g.f.x l q.q.q.q.= 2.6.2.<.  <./ / ^ u k ~ $.}.zXP.P d ",
"@ & 1 M.zX5Xm - * 5 5 5 e   e e t e O a t a g g 5 t g t f X -.-.-.-.X -.-.h h r f h h g g = t t t t X e e w w - 5 e I m.zXJ.7 * ",
"@ @ 7 M.zX1Xv 4 3 3 + 5 6 6 9 4 3 9 0 u i   0 i i i . s s a s a e a j a s o s s i u   u u u u 6 ^ ^ / / ^ - / ! / / > m.zXM., # ",
"9 a ) .XzX1Xo.U ! s + ! ! ~ / U a 4.4.4.6.  6.q.q.w.. w.g.g.g.1.x j.j.j.g.o h.f.r.e.  6.q.q.6.k k <.4.<./ - ^ ~ / ) # |.zX X) i ",
"6 a Q *XzX1XO.! ! s + ~ ! / / s y 5.' 6.7.  6.w.w.w.  w.r.h.h.1.z j.j.h.h.$ r.f.r.r.  q.w.6.6.( z 4./ / / - ~ ~ ) ' + ,XzX.X_ i ",
"# & 2 R.zX1XV 3 * - O 5 5 5 5 5 - e t w t   t r t g   g g g f r q h h h g X g t f g   t t t r 5 5 w e w w - 5 5 5 e : ).zXT.8 * ",
"@ @ v /.zX4XS > # 4 4 4 4 . 7 7 9 9 . i i U L i u U s ! ! X ! s ^ k . ! k k U u u s s u i % i p 7 u . 4 4 7 4 3 6 9 H ).zX;Xm @ ",
"e s n =XzXuXG.L 6 ! ! ~ ~   / ~ ! ~ . 5.6.7.7.( d w.w.r.e.X g.h.g.g.  h.g.g.r.:.x r.q.q.6.% 6.6.4.4.  ! ! ~ ~ d ! $.P.,XzX%X&.s ",
"u s A =XzXuXF.I 6 ! ~ ~ )   ~ ~ Y ! . 4.6.4.6.k a w.w.r.w.  g.r.g.g.  g.r.f.r.,.:.q.q.q.6.% 6.4.4.4.  ! ~ ~ ~ i ~ $.9XtXzX%X=.U ",
"o @ A oXzX5XD # @ * * 3 5   3 5 5 5 . w e e t 5 q r t t g   r f f g   g f g r q q r w r r o w w e w   - 3 5 3 * 3 9 J ).zXOXm & ",
"> 3 H oXzX2Xv.8 7 7 O 8 7 L 0 9 7 L P P Y . Y Y ~ )   ~ ~ ) ' ( s ~ ) ~ / X y.u.u.u.. ! U s L 9 u i 0 9 0 * 6 7 8 m 1 ).zX~.V , ",
"L Y F.eXzX2XI.+.) Y + Y ~ ' ] I d 4.5.4.6.  7.7.7.6.  w.q.r.w.z x r.r.r.e.% z.k.z.k.  6.6.6.6.k k 4.4.4./ - ) ] #.D.c tXzXwXG.W ",
"L W P.eXzX2XU.@._ ~ O ) ) ] ] U d 5.5.5.4.  6.7.q.w.  w.w.w.w.:.z w.w.w.w.o z.k.k.l.  6.6.6.5.k k 4.' ] ] - ' _ $.D.c tXzX*XF.[ ",
"# . S oXzX3Xx.# # # O 3 * 3 - * & - 5 - 5   5 w w q . r q w q - - w r r r X r w e r   w q w - - - 5 - - 5 & 3 * 3 6 c '.zXQ.n # ",
"# 4 D +XzXiXH.M 7 m m B M . B T T W O Q W W _ W Y _ ' ` #.o ] ] ] ] X 4.] ] ] U U ) ~ ~ Y o I P L Y   P 0 N N 7 N Z T.'.zXOXK , ",
"L R x.eXzXuX.X| N | +._ #.  #._ ] ] . 5.5.4.5.k d 6.6.6.w.  q.q.w.q.  e.q.6.6.x k 6.6.4.7.@ 4.5.] 4.  ] ] ] _ L Q G.eXtXzXOX X| ",
"i W x.eXzXhX#X| 0 | | +.|   _ #.] ] . ] 5.5.4.( y 4.6.6.q.  6.q.q.q.  e.q.q.6.x j 6.6.6.6.% 4.4.' 4.  ) ] _ _ I Q G.wXrXzXOXU.| ",
". O D !.zXiXc.> @ > # > 3   * 3 * - . 5 - - q & = - - - q   w - - 5   q - = - - * q - - q @ - - - -   * * # 3 @ # 4 x._.zXOXA @ ",
"7 2 M.+XzXiXR.K J H ; J J H { [ N T P P N . +.$.$.$.O $.u.u.u.t._ u.y.y.t.X s u u 9   ) _ Q Q P T W T T C > C Z F J b '.zX/.M.n ",
"F | .X%XzXpX@XJ.V.B.; F.S.S.&.T p #.] ] 5.  5.5.4.4.  4.6.2.2.j g 6.6.q.6.X 6.6.6.6.  ( ! ! ! p s ] ] _ #.3 +.&.A.P.n >XzXOX$XH.",
"[ { {.=XzXpX$X[.J.V.; L.F.A.*.E p #.] ] 5.  <.4.4.2.  <.6.4.1.k y 6.6.2.q.X 2.2.<.6.  k ! ~ ~ i s ' ] ] _ * @.&.*.L.n >XzXOX@X[.",
"; O D ^.zXaXn.: ; ; , ; ; > > # @ @ # & *   * * * *   - - * * = & = = % = X = * * &   & & & * @ & @ # # @ * + + + ; n `.zXW.x.1 ",
", v c.(.zXfX/.Q. X*X;X.X#X  B.X.O.o.. O.&.=.=.+.%.=.i.i.6Xo 6X7X7X6X. s.i.i.u.` ` $.#.+.@.o +.Q | R . R F H H Z J.@X&X].zXQ./.n.",
"T { c.&XzXgXoXXXZ.{.J.V.A.  @.@.+.+.. ] ' ' / d y <.,.<./ . <.,.<.1.  ,.2.<.2.a j ,.<.<.,.% / ' ' ]   +.&.*.S.} S.=XwX<XzX~.@X@X",
"T { c.&XzXdX$XXXZ.XXK.V.N.   .@._ _ . ) ) ' ' d e / ,.<.,.  1.1.,.1.  ,.1.,.1.d t ,.^ / ^ o / / ~ )   +.&.*.S.} B.wXwX<XzX~.@XoX",
"O + D ^.zXfXE.1 + : + + ;   O # # O . & @ @ & @ o & % o &   & % & &   * o * @ o o & & & * X @ # * @   + @ + + O + : D `.zXW.!.< ",
"1 v M.+XzXaX!.!./.T.; b.v.B.B.} } O.o.N.D.  =.i.u.6X. i 6 9 9 6 i.8X7X7X7Xo u u 9 9   $.#.+.+.Q E [ R [ Z @ F H J x.b `.zX~.!.n.",
"Z R H.+XzXaX@XXX[.J.+ X.o.@.| B p ) ) ~ ^   / ! ! ^   s k k j w y z z z ,.o ^ z z ^   ^ ^ ! ! y u ~ ~ ) ) # Q |  .X.c ].zXOXoXT.",
"E T V.+XzXpX@XK.J.V.+ o. .| Q I p W ~ ~ ~   ( ! ! !   ! k s k w w :.,.:.:.X z ^ z x   z ! ! U y y ~ ~ W ~ @ Q |  .o.c ].zXOX{.b.",
"; . c E.kXW.b O + + O . . . . .   X o o o   % X o o   o X o o o o o X . %   o . . X   % . X . o o X o o o . . O . . : ^.lX^.b ; ",
"# , 1 R.~.^.v.G C H J { } . {  . .&.. N L i p 9 %.i.i.6X6XX ` ] ` ` & 7X6Xs.i.p.5 u u u u . Q ) Q Q   T C T B m m M v.^.^.~.K 2 ",
"i i O { ....R m 7 T T T T   I U U U . s U ! k 5 5 a a j t   j j j g   l l l l y w z k j k o k k s k   U U U U 9 9 P T ..H v T B ",
"u p O 0 P N N 9 4 I P U P   U U U !   ! s a k e 5 a t j j   g t g g   l j j j w q j j j k X a s s j   s s U U e 9 U Y L T # N L ",
"X   . . . o . . . O X . o   o X . X   o . X . X . X X   o   o X . X   o X X X X X . X . @ X X . . X   . . X . . . . . o . @ . . "
};
