/* XPM */
static char *_5039_07f50a8f3f4b185ada3f99ac7a6eb5ca51b00491fe7ab561cd0978bb230254d5[] = {
/* columns rows colors chars-per-pixel */
"46 81 250 2 ",
"   c #0C0C13",
".  c #0D0D14",
"X  c #10101A",
"o  c #11101B",
"O  c #12111C",
"+  c #12121D",
"@  c #13121E",
"#  c #14131F",
"$  c #141320",
"%  c #141420",
"&  c #151421",
"*  c #151522",
"=  c #161623",
"-  c #171624",
";  c #181725",
":  c #181726",
">  c #191826",
",  c #191828",
"<  c #1B1A2A",
"1  c #1C1A2B",
"2  c #1C1B2B",
"3  c #1A1E2D",
"4  c #1D1C2D",
"5  c #1E1C2E",
"6  c #1F1D2F",
"7  c #1E1E39",
"8  c #1B1C3D",
"9  c #1F1D3C",
"0  c #1E1C3E",
"q  c #1F1C3E",
"w  c #1E1C3F",
"e  c #201E31",
"r  c #211F33",
"t  c #201F36",
"y  c #211F36",
"u  c #271F36",
"i  c #201E39",
"p  c #2F1D3A",
"a  c #1B2428",
"s  c #1D2030",
"d  c #1D2131",
"f  c #202E2B",
"g  c #222034",
"h  c #222035",
"j  c #232035",
"k  c #222135",
"l  c #212037",
"z  c #212137",
"x  c #282736",
"c  c #2A2936",
"v  c #2F2B36",
"b  c #212039",
"n  c #242539",
"m  c #25273C",
"M  c #283D36",
"N  c #0F174B",
"B  c #161A43",
"V  c #131946",
"C  c #181B42",
"Z  c #1E1B41",
"A  c #1D1B42",
"S  c #1D1A44",
"D  c #1C1947",
"F  c #1B1849",
"G  c #101952",
"H  c #121C5B",
"J  c #1F2144",
"K  c #1E2148",
"L  c #1E2149",
"P  c #1B254B",
"I  c #1B2B4C",
"U  c #1B2C4C",
"Y  c #1C2151",
"T  c #1B2258",
"R  c #262C40",
"E  c #272E42",
"W  c #272F43",
"Q  c #273740",
"!  c #283247",
"~  c #2B3942",
"^  c #2E3843",
"/  c #2A364B",
"(  c #313D47",
")  c #293F50",
"_  c #142067",
"`  c #182367",
"'  c #142069",
"]  c #17236C",
"[  c #162370",
"{  c #162371",
"}  c #1D2272",
"|  c #223875",
" . c #223778",
".. c #411943",
"X. c #471846",
"o. c #4C194B",
"O. c #56154E",
"+. c #57154E",
"@. c #5B1450",
"#. c #6B054E",
"$. c #710F5B",
"%. c #750E5D",
"&. c #760E5E",
"*. c #651558",
"=. c #6D1159",
"-. c #7E0B75",
";. c #1F5943",
":. c #1A4B52",
">. c #1A4C52",
",. c #1A5253",
"<. c #1A5453",
"1. c #2F4640",
"2. c #334F43",
"3. c #34434A",
"4. c #31434F",
"5. c #2F455A",
"6. c #2F465A",
"7. c #3D5254",
"8. c #3F585A",
"9. c #3F5F5D",
"0. c #196857",
"q. c #197559",
"w. c #197A5A",
"e. c #267E58",
"r. c #2F4D60",
"t. c #324D62",
"y. c #324E63",
"u. c #36576C",
"i. c #2A4475",
"p. c #375C71",
"a. c #35587D",
"s. c #396176",
"d. c #3A6479",
"f. c #3B657B",
"g. c #444351",
"h. c #425E5E",
"j. c #5A5968",
"k. c #534370",
"l. c #446264",
"z. c #4A6B63",
"x. c #486B69",
"c. c #4A7661",
"v. c #50776B",
"b. c #666570",
"n. c #776A7E",
"m. c #870F6A",
"M. c #8B0A68",
"N. c #8D0969",
"B. c #960269",
"V. c #9A0670",
"C. c #9E0672",
"Z. c #A90377",
"A. c #AC0379",
"S. c #AF027A",
"D. c #B4017D",
"F. c #B8007E",
"G. c #B9007F",
"H. c #19865C",
"J. c #18905E",
"K. c #1BA057",
"L. c #189D60",
"P. c #308A60",
"I. c #18A561",
"U. c #18B364",
"Y. c #52846B",
"T. c #42A379",
"R. c #63A47F",
"E. c #19C561",
"W. c #19C661",
"Q. c #19CC63",
"!. c #17CB68",
"~. c #17CC68",
"^. c #17E06C",
"/. c #16EB6E",
"(. c #17F36E",
"). c #16F26F",
"_. c #16F970",
"`. c #16FF71",
"'. c #5D1780",
"]. c #3C6B80",
"[. c #3F7288",
"{. c #496380",
"}. c #40768C",
"|. c #41788D",
" X c #427B90",
".X c #437D93",
"XX c #437F96",
"oX c #3E39D0",
"OX c #B80280",
"+X c #B60892",
"@X c #D80299",
"#X c #D77BBA",
"$X c #B800FF",
"%X c #448197",
"&X c #46889D",
"*X c #47899F",
"=X c #548B92",
"-X c #609986",
";X c #5FA38F",
":X c #6AA88B",
">X c #71BC90",
",X c #488CA2",
"<X c #4990A6",
"1X c #4A90A6",
"2X c #4A91A7",
"3X c #4B97AE",
"4X c #4E9DB3",
"5X c #4FA0B6",
"6X c #4FA0B7",
"7X c #51A6BC",
"8X c #52A7BD",
"9X c #48DC8F",
"0X c #66DCA2",
"qX c #7FD3B2",
"wX c #6CE6A5",
"eX c #53AAC0",
"rX c #54AEC4",
"tX c #56B3CA",
"yX c #57B7CD",
"uX c #59BBD1",
"iX c #5ABBD3",
"pX c #5ABED5",
"aX c #5ECBE3",
"sX c #5FCCE3",
"dX c #5FCDE3",
"fX c #5FCDE4",
"gX c #5FCDE5",
"hX c #5FCEE5",
"jX c #5FCEE6",
"kX c #60CDE4",
"lX c #60CEE5",
"zX c #AFAEBF",
"xX c #80D9B2",
"cX c #83DCB4",
"vX c #89E5AE",
"bX c #86E1B6",
"nX c #87EDB6",
"mX c #8CEAB2",
"MX c #8DECB9",
"NX c #98FFC0",
"BX c #9EFCC4",
"VX c #A5F9C8",
"CX c #C4C4C7",
"ZX c #DCDCDF",
"AX c #EACEE2",
"SX c #F1D3E7",
"DX c #ECECED",
"FX c #FFE0F5",
"GX c white",
"HX c None",
/* pixels */
"HXHXHXHXHXHXHXHXHXHXHXHXHXHXHXHXHXHXHXHXHXHXHXHXHXHXHXHXHXHXHXHXHXHXHXHXHXHXfXHXHXHXHXHXHXHX",
"HXHXHXHXHXHXHXHXHXHXHXHXHXHXHXHXHXHXHXHXHXHXHXHXHXHXHXHXHXHXHXHXHXHXHXHXHXfXG.g HXHXHXHXHXHX",
"HXHXHXHXHXHXHXHXHXHXHXHXHXHXHXHXHXHXHXHXHXHXHXHXHXHXHXHXHXHXHXHXHXHXHXHXg G.g HXHXHXHXHXHXHX",
"HXHXHXHXHXHXHXHXHXHXHXHXHXHXHXHXHXHXHXHXHXHXHXHXHXHXHXHXHXHXHXHXHXHX! Z.G.G.fXHXHXHXHXHXHXHX",
"HXHXHXHXHXHXHXHXHXHXHXHXHXHXHXHXHXHXHXHXHXHXHXHXHXHXHXHXHXHX%XHXHXp.G.G.G.G.fXHXHXHXHXHXHXHX",
"HXHXHXHXHXHXHXHXHXHXHXHXHXHXHXHXHXHXHXHXHXHXHXHXHXHXHXHXHX2X$.HXt.G.G.G.G.G.fXHXHXHXHXtXHXHX",
"HXHXHXHXHXHXHXHXHXHXHXHXHXHXHXHXHXHXHXHXHXHXHXHXHXHXHXHXHXO.$.k.G.G.G.G.G.g HXHXHX,X@.S.|.HX",
"HXHXHXHXHXHXHXHXHXHXHXHXHXHXHXHXHXHXHXHXHXHXHXHXHXHXHXHX8XG.G.G.G.G.G.G.G.fXeX..G.G.F.u.HXHX",
"HXHXHXHXHXHXHXHXHXHXHXHXHXHXHXHXHXHXHXHXHXHXHXHXHXHXHXHXX.G.G.G.G.G.G.G.G.G.G.G.G.D.R HXHXHX",
"HXHXHXHXHXHXHXHXHXHXHXHXHXHXHXHXHXHXHXHXHXHXHXHXHXHXHXp G.G.G.G.G.G.G.G.G.G.G.G.g HXHXfXg kX",
"HXHXHXHXHXHXHXHXHXHXHXHXHXHXHXHXHXHXHXHXHXHXHXHXHXHXg G.G.G.G.G.G.G.G.G.G.G.g fXg g G.G.M.kX",
"HXHXHXHXHXHXHXHXHXHXHXHXHXHXHXHXHXHXHXHXHXHXHXHXHXfXG.G.G.G.G.G.G.G.G.G.G.G.G.G.G.G.G.C.gXHX",
"HXHXHXHXHXHXHXHXHXHXHXHXHXHXHXHXHXHXHXHXHXHXHXHXfXG.G.G.G.G.G.G.G.G.G.G.G.G.G.G.G.G.m HXHXHX",
"HXHXHXHXHXHXHXHXHXHXHXHXHXHXHXHXHXHXHXHXHXHXfX#XfXG.G.G.G.G.G.G.G.G.G.G.G.G.G.G.G.g HXHXHXHX",
"HXHXHXHXHXHXHXHXHXHXHXHXHXHXHXHXHXHXHXHXHXHXHXsXOXG.G.G.G.G.G.G.G.G.G.G.G.G.j F.k HXHXHXHXHX",
"HXHXHXHXHXHXHXHXHXHXHXHXHXHXHXHXHXHXHXHXHXfXfXfXrXG.G.G.G.G.G.G.G.G.G.G.G.G.G.g HXHXHXHXHXHX",
"HXHXHXHXHXHXHXHXHXHXHXHXHXHXHXHXHXHXHXlX= X X X X = G.G.G.G.G.G.G.G.G.G.+.1XHXHXHXHXHXHXHXHX",
"HXHXHXHXHXHXHXHXHXHXHXHXHXHXHXHXHXHXd X X X X X X X , G.G.G.G.N.$.$.[.[.HXHXHXHXHXHXHXHXHXHX",
"HXHXHXHXHXHXHXHXHXHXHXHXHXHXHXHX5X@ * * * * X X X X X W fXfXfXHXHXHXHXHXHXHXHXHXHXHXHXHXHXHX",
"HXHXHXHXHXHXHXHXHXHXHXHXHXHXHXHXf.o X X v X X FXX X X A.fXHXHXHXHXHXHXHXHXHXHXHXHXHXHXHXHXHX",
"HXHXHXHXHXHXHXHXHXHXHXHXHXHXHXHXhX$ AXX X FXFXX X X $XA.fXHXHXHXHXHXHXHXHXHXHXHXHXHXHXHXHXHX",
"HXHXHXHXHXHXHXHXHXHXHXHXHXHXHXHXHX6.AXFXX FXX X $XG.g W HXHXHXHXHXHXHXHXHXHXHXHXHXHXHXHXHXHX",
"HXHXHXHXHXHXHXHXHXHXHXHXHXHXHXHXhX$ $XX X $XX X X N { fXHXHXHXHXHXHXHXHXHXHXHXHXHXHXHXHXHXHX",
"HXHXHXHXHXHXHXHXHXHXHXHXHXHXHX[.X X X X X X g G.{ - - g fXfXfXfXHXHXHXHXHXHXHXHXHXHXHXHXHXHX",
"HXHXHXHXHXHXHXHXHXHXHXHXHXHXfXg X X O g N { { G.G.- { y F g `.`.5XHXHXHXHXHXHXHXHXHXHXHXHXHX",
"HXHXHXHXHXHXHXHXHXHXHXHXHX6X:XnXHXHXA.g GXGX- G.G.- { ] `.F F F F yXHXHXHXHXHXHXHXHXHXHXHXHX",
"HXHXHXHXHXHXHXHXHXHXHXHX4.qXx.P.z.HXh G.r GXDXG.c b `.I F F F F F yXHXHXHXHXHXHXHXHXHXHXHXHX",
"HXHXHXHXHXHXHXHXHXHXHXHXQ G | {.wXHXA.G._ CX- - j.;.i i i i i W.XXHXHXHXHXHXHXHXHXHXHXHXHXHX",
"HXHXHXHXHXHXHXHXHXHXHXHX~ =X{ a.9.=.G.N { H K.g L.F w.F F F L.w.5XHXHXHXHXHXHXHXHXHXHXHXHXHX",
"HXHXHXHXHXHXHXHXHXHXHXHXHXT.i.;Xv.&.AXn.9 F q.9 `.`.q.F q.I.F J.5XHXHXHXHXHXHXHXHXHXHXHXHXHX",
"HXHXHXHXHXHXHXHXHXHXHXHXHX7Xl. .xX7 SXi >.`.Q.!.F >.!.U F 0.H.9 HXHXHXHXHXHXHXHXHXHXHXHXHXHX",
"HXHXHXHXHXHXHXHXHXHXHXHXz P ).C [ { { (.F P g ).P F F ^.,.U._.*XHXHXHXHXHXHXHXHXHXHXHXHXHXHX",
"HXHXHXHXHXHXHXHXHXHXHXg F F F q *.' { { { `.`.`.F `.`.`.~.`.w HXHXHXHXHXHXHXHXHXHXHXHXHXHXHX",
"HXHXHXHXHXHXHXHXHXHXg F F F `.m.{ o.{ { g F F F `.F F U :.F [.HXHXHXHXHXHXHXHXHXHXHXHXHXHXHX",
"HXHXHXHXHXHXHXHXHXg F F F F Z -.'.+Xg `.F F F `.F F `./.S p.HXHXHXHXHXHXHXHXHXHXHXHXHXHXHXHX",
"HXHXHXHXHXHXHXHXHXg F F F <.8 { L V t F F F `.F `.F F D fXHXHXHXHXHXHXHXHXHXHXHXHXHXHXHXHXHX",
"HXHXHXHXHXHXHXHXHXg F F F E.N N { { MXF `.`.F F F F F W HXHXHXHXHXHXHXHXHXHXHXHXHXHXHXHXHXHX",
"HXHXHXHXHXHXHXHXHXHXfXg g J { Y B N N cX`.g g g cXg g HXHXHXHXHXHXHXHXHXHXHXHXHXHXHXHXHXHXHX",
"HXHXHXHXHXHXHXHXHXHXHXg GXZXZXT @X} ` 3.3.3.bXbXbXBX( 5.HXHXHXHXHXHXHXHXHXHXHXHXHXHXHXHXHXHX",
"HXHXHXHXHXHXHXHXHXHXfXGXGXGXGXzXA A K K g oXoX9XVX0X0X-X6.HXHXHXHXHXHXHXHXHXHXHXHXHXHXHXHXHX",
"HXHXHXHXHXHXHXHXHXHXfXX x GXGXGXF F F F F 0 0 0 }.e.aXHXHXHXHXHXHXHXHXHXHXHXHXHXHXHXHXHXHXHX",
"HXHXHXHXHXHXHXHXHXHXfXX X g.GXb.2 2 8.h.h.h.h.h.g HXHXHXHXHXHXHXHXHXHXHXHXHXHXHXHXHXHXHXHXHX",
"HXHXHXHXHXHXHXHXHXHXg X X X X X X X X X X X X X X fXHXHXHXHXHXHXHXHXHXHXHXHXHXHXHXHXHXHXHXHX",
"HXHXHXHXHXHXHXHXHXHXg X X X X X X X X X X X X X X g HXHXHXHXHXHXHXHXHXHXHXHXHXHXHXHXHXHXHXHX",
"HXHXHXHXHXHXHXHXHXfXX X X X X X X X X X X NXg g { { fXHXHXHXHXHXHXHXHXHXHXHXHXHXHXHXHXHXHXHX",
"HXHXHXHXHXHXHXHXHXfXX X X X X X X X X g { { { { { { { fXHXHXHXHXHXHXHXHXHXHXHXHXHXHXHXHXHXHX",
"HXHXHXHXHXHXHXHXHXfXX X X X X X X X ] { { { NX{ { { { W HXHXHXHXHXHXHXHXHXHXHXHXHXHXHXHXHXHX",
"HXHXHXHXHXHXHXHXHXfXX X X X X X X X g { { { { NX{ { { ] fXHXHXHXHXHXHXHXHXHXHXHXHXHXHXHXHXHX",
"HXHXHXHXHXHXHXHXHXfXX X X X X X X X pXg { { { NX{ { g g 6.HXHXHXHXHXHXHXHXHXHXHXHXHXHXHXHXHX",
"HXHXHXHXHXHXHXHXHXg X X X X X X X 5 HXHXl { { { NXX X X $ hXHXHXHXHXHXHXHXHXHXHXHXHXHXHXHXHX",
"HXHXHXHXHXHXHXHXHXg X X X X X X X &XHXHXfX7.% X 1.X X X X p.HXHXHXHXHXHXHXHXHXHXHXHXHXHXHXHX",
"HXHXHXHXHXHXHXHXHXg X X X X X X 1 HXHXHXHXg X X X NXX X X = kXHXHXHXHXHXHXHXHXHXHXHXHXHXHXHX",
"HXHXHXHXHXHXHXHXHXg X X X X X X r.HXHXHXHXHXg X X X c.X X X [.HXHXHXHXHXHXHXHXHXHXHXHXHXHXHX",
"HXHXHXHXHXHXHXHXHXg X X X X X + 3XHXHXHXHXHXfX& X X X X X Y.> HXHXHXHXHXHXHXHXHXHXHXHXHXHXHX",
"HXHXHXHXHXHXHXHXHXg X X X X X s HXHXHXHXHXHXHXE X X a NXX X ; HXHXHXHXHXHXHXHXHXHXHXHXHXHXHX",
"HXHXHXHXHXHXHXHXHXg X X X X X  XHXHXHXHXHXHXHXHXg NXNXmXX X X *XHXHXHXHXHXHXHXHXHXHXHXHXHXHX",
"HXHXHXHXHXHXHXHXHXg X X X X d.HXHXHXHXHXHXHXHXHXHXg X X X X X < HXHXHXHXHXHXHXHXHXHXHXHXHXHX",
"HXHXHXHXHXHXHXHXHXg X X X & hXHXHXHXHXHXHXHXHXHXHXfXX X X X X X 5XHXHXHXHXHXHXHXHXHXHXHXHXHX",
"HXHXHXHXHXHXHXHXfXX X X X t.HXHXHXHXHXHXHXHXHXHXHXHXfXX X X X X 4 HXHXHXHXHXHXHXHXHXHXHXHXHX",
"HXHXHXHXHXHXHXHXfXX X X X t.HXHXHXHXHXHXHXHXHXHXHXHXHXpXX X X X X e HXHXHXHXHXHXHXHXHXHXHXHX",
"HXHXHXHXHXHXHXHXfXX X X X & hXHXHXHXHXHXHXHXHXHXHXHXHXHX8XX X X X X g HXHXHXHXHXHXHXHXHXHXHX",
"HXHXHXHXHXHXHXHXg X X X X & hXHXHXHXHXHXHXHXHXHXHXHXHXHXHXyX: X X X X / HXHXHXHXHXHXHXHXHXHX",
"HXHXHXHXHXHXHXHXg X X X X & hXHXHXHXHXHXHXHXHXHXHXHXHXHXHXHX XX X X X X fXHXHXHXHXHXHXHXHXHX",
"HXHXHXHXHXHXHXfXX X X X X t.HXHXHXHXHXHXHXHXHXHXHXHXHXHXHXHXHX) X X X X g HXHXHXHXHXHXHXHXHX",
"HXHXHXHXHXHXHXfXX X X X + fXHXHXHXHXHXHXHXHXHXHXHXHXHXHXHXHXHX.XO X X X g HXHXHXHXHXHXHXHXHX",
"HXHXHXHXHXHXHXfXX X X X hXHXHXHXHXHXHXHXHXHXHXHXHXHXHXHXHXHXHXHX3 X X X 6 HXHXHXHXHXHXHXHXHX",
"HXHXHXHXHXHXHXg X X X g HXHXHXHXHXHXHXHXHXHXHXHXHXHXHXHXHXHXHXHXy.X X X X fXHXHXHXHXHXHXHXHX",
"HXHXHXHXHXHXHXg X X X fXHXHXHXHXHXHXHXHXHXHXHXHXHXHXHXHXHXHXHXHXHX/ X X X g HXHXHXHXHXHXHXHX",
"HXHXHXHXHXHXHXg X X g HXHXHXHXHXHXHXHXHXHXHXHXHXHXHXHXHXHXHXHXHXHXhXX X X g HXHXHXHXHXHXHXHX",
"HXHXHXHXHXHXHXg X X fXHXHXHXHXHXHXHXHXHXHXHXHXHXHXHXHXHXHXHXHXHXHXHXg X X g HXHXHXHXHXHXHXHX",
"HXHXHXHXHXHXfXX X g HXHXHXHXHXHXHXHXHXHXHXHXHXHXHXHXHXHXHXHXHXHXHXHXfXX X g HXHXHXHXHXHXHXHX",
"HXHXHXHXHXHXg X G.fXHXHXHXHXHXHXHXHXHXHXHXHXHXHXHXHXHXHXHXHXHXHXHXHXfXX X X fXHXHXHXHXHXHXHX",
"HXHXHXHXn n g r u fXHXHXHXHXHXHXHXHXHXHXHXHXHXHXHXHXHXHXHXHXHXHXHXHXHXg X X fXHXHXHXHXHXHXHX",
"HXHXHXHXg NXM B.G.fXHXHXHXHXHXHXHXHXHXHXHXHXHXHXHXHXHXHXHXHXHXHXHXHXgXV.V...g HXHXHXHXHXHXHX",
"HXHXHXdX# R.  @.@.HXHXHXHXHXHXHXHXHXHXHXHXHXHXHXHXHXHXHXHXHXHXHXHX<X@.G.G.G.< s.HXHXHXHXHXHX",
"HXHXHXm       NX  fXHXHXHXHXHXHXHXHXHXHXHXHXHXHXHXHXHXHXHXHXHXHXHXHXjX%.#.      fXHXHXHXHXHX",
"HXHXfX.   >X      fXHXHXHXHXHXHXHXHXHXHXHXHXHXHXHXHXHXHXHXHXHXHXHXHXHX4X  2.  NXg HXHXHXHXHX",
"HXiX^ f       vX  fXHXHXHXHXHXHXHXHXHXHXHXHXHXHXHXHXHXHXHXHXHXHXHXHXuX  vX    vX^ HXHXHXHXHX",
"].          NXNXg HXHXHXHXHXHXHXHXHXHXHXHXHXHXHXHXHXHXHXHXHXHXHXHX/ NXNXNX  NX  g HXHXHXHXHX",
"].NXNXg g fXHXHXHXHXHXHXHXHXHXHXHXHXHXHXHXHXHXHXHXHXHXHXHXHXHXHXt.NXNX      NXg HXHXHXHXHXHX",
"HXHXHXHXHXHXHXHXHXHXHXHXHXHXHXHXHXHXHXHXHXHXHXHXHXHXHXHXHXHXHXHXHXHXHXfXfXfXHXHXHXHXHXHXHXHX"
};
